:SAMPLES-PER-SECOND 30
:FULLY-SPECIFIED
:DEGREES
340
root  -5.42962 40.952 -0.581082 1.51196 -77.9867 0.941772
RightUpLeg  3.57845 -1.71695 -0.33743
RightLeg  -5.32425 -33.5089 3.73474
RightFoot  0.142788 -0.189126 1.90906
RightToes  -3.11842e-008 1.75238e-005 3.56266e-009
Spine  -2.72109 -0.399672 -3.15296
Spine1  4.26676 -0.271059 0.535666
HEad  -8.73962 -2.10579 6.02104
LeftShoulder1  1.44328 -3.30409 -14.2974
LeftArm  -32.9092 -30.1159 -15.8991
LeftForeArm  117.313 -75.9524 -130.719
LeftHand  -0.478099 -4.42856 5.93198
RightShoulder  0.990353 2.05884 10.6066
RightArm  -25.4263 29.1741 3.48297
RightForeArm  104.72 74.5443 132.995
RightHand  -1.64976 10.6818 -12.2093
LeftUpLeg  -0.442049 1.02838 3.79282
LeftLeg  -2.29074 2.57197 -0.120147
LeftFoot  1.36135 0.421028 -3.85457
LeftToes  4.78904e-008 1.4679e-008 1.35657e-009
341
root  -5.19832 40.9766 -0.574946 2.57983 -78.1024 0.767212
RightUpLeg  2.40596 -1.70748 -0.485962
RightLeg  -5.78271 -33.3606 4.20256
RightFoot  0.728936 -0.174802 1.69782
RightToes  -3.11842e-008 1.75238e-005 3.56266e-009
Spine  -1.48726 -0.343865 -2.89936
Spine1  2.95856 -0.261684 0.514721
HEad  -8.87715 -1.91069 6.08561
LeftShoulder1  1.44869 -3.4989 -13.7327
LeftArm  -38.1466 -31.5034 -18.3288
LeftForeArm  53.6535 -78.5513 -77.1298
LeftHand  -0.52579 -2.75835 7.64117
RightShoulder  0.938751 1.82838 10.3901
RightArm  -31.1463 29.6088 4.38913
RightForeArm  41.9952 78.0854 80.0615
RightHand  -1.02317 8.97071 -8.59106
LeftUpLeg  -1.47148 0.703748 3.67539
LeftLeg  -2.95345 3.14278 -0.0990234
LeftFoot  2.20443 0.435566 -3.78145
LeftToes  4.78904e-008 1.4679e-008 1.35657e-009
342
root  -4.93479 40.9914 -0.590984 3.57922 -78.0919 0.5802
RightUpLeg  1.27427 -1.60567 -0.531027
RightLeg  -6.26547 -33.4732 4.58991
RightFoot  1.33383 -0.152323 1.4533
RightToes  -3.11842e-008 1.75238e-005 3.56266e-009
Spine  -0.557656 -0.359862 -2.67895
Spine1  2.53613 -0.297034 0.425745
HEad  -9.59078 -2.1118 5.86987
LeftShoulder1  1.50447 -3.71692 -13.8985
LeftArm  -45.5566 -34.6416 -21.1563
LeftForeArm  8.78591 -71.4299 -36.8173
LeftHand  -0.331961 -1.29296 5.92679
RightShoulder  0.998768 2.06846 10.7404
RightArm  -37.9533 30.3973 5.24019
RightForeArm  -5.83912 70.8144 37.4083
RightHand  -0.580582 7.75151 -5.52465
LeftUpLeg  -2.49124 0.554345 3.68945
LeftLeg  -3.59315 3.32314 -0.234388
LeftFoot  3.02665 0.429172 -3.55014
LeftToes  4.78904e-008 1.4679e-008 1.35657e-009
343
root  -4.66689 40.9983 -0.604636 3.56714 -78.2211 1.04053
RightUpLeg  0.442082 -1.60636 -0.708186
RightLeg  -6.50799 -33.38 4.76775
RightFoot  1.78991 -0.125381 1.19416
RightToes  -3.11842e-008 1.75238e-005 3.56266e-009
Spine  -0.0353494 -0.359153 -2.61035
Spine1  3.46535 -0.303194 0.348785
HEad  -10.2997 -1.70079 5.19084
LeftShoulder1  1.54358 -3.68483 -14.5963
LeftArm  -55.3081 -38.9242 -23.3163
LeftForeArm  -7.8 -60.3052 -20.9493
LeftHand  -0.246108 -0.289444 5.10352
RightShoulder  1.124 2.62558 11.2007
RightArm  -46.0135 31.7515 5.96553
RightForeArm  -27.1397 59.2158 21.3316
RightHand  -0.617098 7.14478 -6.05537
LeftUpLeg  -3.15601 0.386067 3.5528
LeftLeg  -4.10242 3.75547 -0.376978
LeftFoot  3.78874 0.437799 -3.46915
LeftToes  4.78904e-008 1.4679e-008 1.35657e-009
344
root  -4.40745 40.9864 -0.609632 3.84576 -78.2511 0.969788
RightUpLeg  -0.230588 -1.39658 -0.661556
RightLeg  -6.50427 -33.6694 4.61697
RightFoot  2.14328 -0.116135 1.10608
RightToes  -3.11842e-008 1.75238e-005 3.56266e-009
Spine  0.254822 -0.37583 -2.21076
Spine1  4.87279 -0.269548 0.00449406
HEad  -10.6542 -0.985963 5.79509
LeftShoulder1  1.64238 -3.93025 -15.2721
LeftArm  -67.1367 -43.0743 -24.8752
LeftForeArm  -15.9449 -49.1607 -13.9385
LeftHand  -0.203896 1.11958 5.52269
RightShoulder  1.18891 2.73197 12.0147
RightArm  -55.8289 33.7019 7.27529
RightForeArm  -35.3125 47.6047 14.255
RightHand  -0.737519 6.58437 -7.47709
LeftUpLeg  -3.71411 0.315517 3.54045
LeftLeg  -4.27934 3.89044 -0.481971
LeftFoot  4.16141 0.434453 -3.37723
LeftToes  4.78904e-008 1.4679e-008 1.35657e-009
345
root  -4.20054 40.9871 -0.617448 3.81689 -78.4127 0.900208
RightUpLeg  -0.380384 -1.29702 -0.650116
RightLeg  -6.76555 -33.6562 4.69021
RightFoot  2.51998 -0.0967049 0.936486
RightToes  -3.11842e-008 1.75238e-005 3.56266e-009
Spine  0.253409 -0.383246 -2.22566
Spine1  6.81559 -0.314384 0.136616
HEad  -9.51725 -0.994676 4.94608
LeftShoulder1  1.76798 -4.35341 -15.7282
LeftArm  -76.7461 -43.9467 -25.2335
LeftForeArm  -24.9199 -41.2352 -11.17
LeftHand  -0.164937 2.84752 6.93007
RightShoulder  1.20864 2.73797 12.3428
RightArm  -65.0694 35.0355 8.85693
RightForeArm  -40.913 37.8794 10.6071
RightHand  -0.833993 5.72928 -8.99915
LeftUpLeg  -3.89114 0.283971 3.50717
LeftLeg  -4.34825 4.09565 -0.518308
LeftFoot  4.54892 0.410717 -3.14457
LeftToes  4.78904e-008 1.4679e-008 1.35657e-009
346
root  -4.04242 40.9889 -0.614207 3.71375 -78.5804 1.04315
RightUpLeg  -0.806049 -1.38455 -0.777813
RightLeg  -6.46254 -33.3692 4.58114
RightFoot  2.62638 -0.0772077 0.776281
RightToes  -3.11842e-008 1.75238e-005 3.56266e-009
Spine  0.469971 -0.418484 -2.61425
Spine1  7.65178 -0.508657 0.790225
HEad  -7.76531 -0.445181 4.54648
LeftShoulder1  1.71597 -4.11207 -15.7547
LeftArm  -81.1778 -42.8543 -26.7212
LeftForeArm  -33.8407 -35.774 -9.71898
LeftHand  -0.0790954 4.42101 7.3627
RightShoulder  1.28511 3.04079 12.6412
RightArm  -66.5503 33.519 9.598
RightForeArm  -48.067 32.6725 9.22729
RightHand  -0.897124 4.72314 -10.5682
LeftUpLeg  -4.05258 0.306137 3.47839
LeftLeg  -4.58159 4.24148 -0.671864
LeftFoot  4.90884 0.392987 -2.96145
LeftToes  4.78904e-008 1.4679e-008 1.35657e-009
347
root  -3.94716 40.9909 -0.593829 4.16846 -78.8595 0.697083
RightUpLeg  -1.12111 -1.34284 -0.785917
RightLeg  -6.43251 -33.1151 4.5693
RightFoot  2.8298 -0.0720768 0.735177
RightToes  -3.11842e-008 1.75238e-005 3.56266e-009
Spine  0.363366 -0.388091 -2.63588
Spine1  8.44105 -0.553339 1.06079
HEad  -5.57601 0.0423319 4.4487
LeftShoulder1  1.65806 -3.8824 -15.6628
LeftArm  -76.8443 -39.3072 -28.8135
LeftForeArm  -40.027 -34.0594 -9.42496
LeftHand  -0.0465831 5.16208 9.04637
RightShoulder  1.37531 3.24233 13.4808
RightArm  -60.4125 29.8947 10.1657
RightForeArm  -52.6504 32.5253 9.30669
RightHand  -0.823269 3.54282 -10.9181
LeftUpLeg  -4.31345 0.228064 3.47109
LeftLeg  -4.50778 4.65271 -0.628369
LeftFoot  4.95998 0.388141 -2.94319
LeftToes  4.78904e-008 1.4679e-008 1.35657e-009
348
root  -3.90846 40.9922 -0.575754 4.25592 -79.1937 0.52356
RightUpLeg  -1.09822 -1.33596 -0.791953
RightLeg  -6.46442 -32.823 4.57954
RightFoot  2.87335 -0.0556921 0.603852
RightToes  -3.11842e-008 1.75238e-005 3.56266e-009
Spine  -0.512543 -0.378076 -3.0001
Spine1  10.4456 -0.697425 1.67188
HEad  -4.1433 0.518472 3.94738
LeftShoulder1  1.69761 -3.88716 -16.2374
LeftArm  -68.0715 -34.3871 -30.2773
LeftForeArm  -39.1405 -35.8894 -9.95322
LeftHand  -0.00231576 5.72073 6.22495
RightShoulder  1.4982 3.43673 14.7737
RightArm  -53.5903 26.5495 10.2751
RightForeArm  -51.2179 35.4705 10.1532
RightHand  -0.82203 4.19578 -10.1852
LeftUpLeg  -4.31136 0.248664 3.47239
LeftLeg  -4.31519 4.91868 -0.609786
LeftFoot  4.89255 0.381464 -2.87363
LeftToes  4.78904e-008 1.4679e-008 1.35657e-009
349
root  -3.87608 40.9927 -0.547277 3.59973 -79.7517 0.939758
RightUpLeg  -0.921121 -1.35607 -0.908621
RightLeg  -6.44399 -32.2868 4.47142
RightFoot  2.90942 -0.0625727 0.659218
RightToes  -3.11842e-008 1.75238e-005 3.56266e-009
Spine  -1.13531 -0.391019 -3.8002
Spine1  12.1194 -0.929718 2.50603
HEad  -2.36636 1.33568 3.61892
LeftShoulder1  1.66866 -3.51781 -17.0942
LeftArm  -62.4676 -30.8902 -32.4046
LeftForeArm  -34.4793 -39.5961 -11.0331
LeftHand  -0.132429 3.12822 5.99016
RightShoulder  1.73423 3.94356 16.674
RightArm  -49.9936 24.0919 10.345
RightForeArm  -47.7082 39.4895 11.4154
RightHand  -0.679054 4.23558 -8.45975
LeftUpLeg  -4.11425 0.236622 3.36003
LeftLeg  -4.09553 5.40616 -0.6041
LeftFoot  4.81465 0.383868 -2.91258
LeftToes  4.78904e-008 1.4679e-008 1.35657e-009
